<mxfile host="app.diagrams.net" modified="2022-04-13T05:47:47.284Z" agent="5.0 (Macintosh; Intel Mac OS X 10_15_7) AppleWebKit/605.1.15 (KHTML, like Gecko) Version/15.4 Safari/605.1.15" etag="Zr6rxI7DbhZfrmPB4aOB" version="17.4.3" type="github">
  <diagram id="CQO6lphGf-RVCSY1LA8P" name="Page-1">
    <mxGraphModel dx="1351" dy="802" grid="1" gridSize="10" guides="1" tooltips="1" connect="1" arrows="1" fold="1" page="1" pageScale="1" pageWidth="850" pageHeight="1100" math="0" shadow="0">
      <root>
        <mxCell id="0" />
        <mxCell id="1" parent="0" />
        <mxCell id="9JChWid0Spb6rN9y7xyM-1" value="" style="group" vertex="1" connectable="0" parent="1">
          <mxGeometry x="479.75" y="1031" width="380" height="115" as="geometry" />
        </mxCell>
        <mxCell id="9JChWid0Spb6rN9y7xyM-2" value="" style="group" vertex="1" connectable="0" parent="9JChWid0Spb6rN9y7xyM-1">
          <mxGeometry width="380" height="95" as="geometry" />
        </mxCell>
        <mxCell id="9JChWid0Spb6rN9y7xyM-3" value="&lt;span style=&quot;white-space: pre&quot;&gt;Permanent Button&lt;br&gt;1. HelpMenu/Description&lt;br&gt;2. Choose Sudoku Algorithm Solver&lt;br&gt;&lt;strike&gt;3. File Access&lt;br/&gt;4. Choose Game&lt;/strike&gt;&lt;br&gt;&lt;/span&gt;" style="rounded=0;whiteSpace=wrap;html=1;fontSize=12;fontColor=#000000;fillColor=#FFFFFF;align=left;spacingLeft=10;" vertex="1" parent="9JChWid0Spb6rN9y7xyM-2">
          <mxGeometry x="160" width="220" height="95" as="geometry" />
        </mxCell>
        <mxCell id="9JChWid0Spb6rN9y7xyM-4" value="&lt;span style=&quot;white-space: pre&quot;&gt;Permanent Indicator&lt;br&gt;1. Time Count&lt;br&gt;2. Entry Time Counts&lt;br&gt;&lt;strike&gt;3. All Possible Solution&lt;/strike&gt;&lt;br&gt;&lt;/span&gt;" style="rounded=0;whiteSpace=wrap;html=1;fontSize=12;fontColor=#000000;fillColor=#FFFFFF;align=left;spacingLeft=10;" vertex="1" parent="9JChWid0Spb6rN9y7xyM-2">
          <mxGeometry width="160" height="95" as="geometry" />
        </mxCell>
        <mxCell id="9JChWid0Spb6rN9y7xyM-5" value="&lt;strike&gt;abc&lt;/strike&gt;&amp;nbsp;= Feature that might be added in future project." style="rounded=0;whiteSpace=wrap;html=1;fontSize=12;fontColor=#000000;fillColor=#FFFFFF;align=left;spacingLeft=10;" vertex="1" parent="9JChWid0Spb6rN9y7xyM-1">
          <mxGeometry y="95" width="380" height="20" as="geometry" />
        </mxCell>
        <mxCell id="9JChWid0Spb6rN9y7xyM-6" value="if(newGame)" style="rhombus;whiteSpace=wrap;html=1;rounded=0;fillColor=#f8cecc;strokeColor=#b85450;" vertex="1" parent="1">
          <mxGeometry x="1739.75" y="576" width="260" height="30" as="geometry" />
        </mxCell>
        <mxCell id="9JChWid0Spb6rN9y7xyM-7" value="&lt;span style=&quot;white-space: pre&quot;&gt;Window&lt;/span&gt;&lt;br&gt;Green Block = PlayMode&lt;br&gt;Red Block = ShowSolutionMode&lt;br&gt;White Block = Non/Both Window" style="rounded=0;whiteSpace=wrap;html=1;fontSize=12;fontColor=#000000;fillColor=#FFFFFF;align=left;spacingLeft=10;" vertex="1" parent="1">
          <mxGeometry x="889.75" y="1031" width="212" height="70" as="geometry" />
        </mxCell>
        <mxCell id="9JChWid0Spb6rN9y7xyM-8" value="if(event.close)" style="rhombus;whiteSpace=wrap;html=1;rounded=0;" vertex="1" parent="1">
          <mxGeometry x="959.75" y="391" width="240" height="40" as="geometry" />
        </mxCell>
        <mxCell id="9JChWid0Spb6rN9y7xyM-9" value="if(GenerateNew)" style="rhombus;whiteSpace=wrap;html=1;rounded=0;fillColor=#d5e8d4;strokeColor=#82b366;" vertex="1" parent="1">
          <mxGeometry x="751.75" y="741" width="260" height="50" as="geometry" />
        </mxCell>
        <mxCell id="9JChWid0Spb6rN9y7xyM-10" value="Updating Sudoku Grid Value" style="whiteSpace=wrap;html=1;rounded=0;fillColor=#d5e8d4;strokeColor=#82b366;" vertex="1" parent="1">
          <mxGeometry x="539.75" y="951" width="230" height="20" as="geometry" />
        </mxCell>
        <mxCell id="9JChWid0Spb6rN9y7xyM-11" value="if(Reset)" style="rhombus;whiteSpace=wrap;html=1;rounded=0;fillColor=#d5e8d4;strokeColor=#82b366;" vertex="1" parent="1">
          <mxGeometry x="469.75" y="741" width="260" height="50" as="geometry" />
        </mxCell>
        <mxCell id="9JChWid0Spb6rN9y7xyM-12" value="Turn All Sudoku Grids into default value" style="whiteSpace=wrap;html=1;rounded=0;fillColor=#d5e8d4;strokeColor=#82b366;" vertex="1" parent="1">
          <mxGeometry x="460" y="846" width="279.5" height="25" as="geometry" />
        </mxCell>
        <mxCell id="9JChWid0Spb6rN9y7xyM-13" value="" style="edgeStyle=orthogonalEdgeStyle;rounded=0;orthogonalLoop=1;jettySize=auto;html=1;fontSize=12;startArrow=none;startFill=0;endArrow=openThin;endFill=0;" edge="1" parent="1" source="9JChWid0Spb6rN9y7xyM-11" target="9JChWid0Spb6rN9y7xyM-12">
          <mxGeometry relative="1" as="geometry" />
        </mxCell>
        <mxCell id="9JChWid0Spb6rN9y7xyM-14" value="True" style="edgeLabel;html=1;align=center;verticalAlign=middle;resizable=0;points=[];fontSize=12;" vertex="1" connectable="0" parent="9JChWid0Spb6rN9y7xyM-13">
          <mxGeometry x="-0.1853" y="-1" relative="1" as="geometry">
            <mxPoint as="offset" />
          </mxGeometry>
        </mxCell>
        <mxCell id="9JChWid0Spb6rN9y7xyM-15" value="" style="edgeStyle=orthogonalEdgeStyle;rounded=0;orthogonalLoop=1;jettySize=auto;html=1;fontSize=12;startArrow=none;startFill=0;endArrow=openThin;endFill=0;" edge="1" parent="1" source="9JChWid0Spb6rN9y7xyM-12" target="9JChWid0Spb6rN9y7xyM-10">
          <mxGeometry relative="1" as="geometry" />
        </mxCell>
        <mxCell id="9JChWid0Spb6rN9y7xyM-16" value="Randomly Generate Sudoku Grid Value" style="whiteSpace=wrap;html=1;rounded=0;fillColor=#d5e8d4;strokeColor=#82b366;" vertex="1" parent="1">
          <mxGeometry x="769.75" y="846" width="225" height="20" as="geometry" />
        </mxCell>
        <mxCell id="9JChWid0Spb6rN9y7xyM-17" value="True" style="edgeStyle=orthogonalEdgeStyle;rounded=0;orthogonalLoop=1;jettySize=auto;html=1;fontSize=12;startArrow=none;startFill=0;endArrow=openThin;endFill=0;" edge="1" parent="1" source="9JChWid0Spb6rN9y7xyM-9" target="9JChWid0Spb6rN9y7xyM-16">
          <mxGeometry relative="1" as="geometry" />
        </mxCell>
        <mxCell id="9JChWid0Spb6rN9y7xyM-18" style="edgeStyle=orthogonalEdgeStyle;rounded=0;orthogonalLoop=1;jettySize=auto;html=1;entryX=0.5;entryY=0;entryDx=0;entryDy=0;fontSize=12;startArrow=none;startFill=0;endArrow=openThin;endFill=0;" edge="1" parent="1" source="9JChWid0Spb6rN9y7xyM-16" target="9JChWid0Spb6rN9y7xyM-10">
          <mxGeometry relative="1" as="geometry" />
        </mxCell>
        <mxCell id="9JChWid0Spb6rN9y7xyM-19" value="Open Program, --&amp;gt; Setting Program" style="rounded=0;whiteSpace=wrap;html=1;fontSize=12;fillColor=#000000;strokeColor=#000000;fontColor=#FFFFFF;" vertex="1" parent="1">
          <mxGeometry x="1239.75" y="330" width="300" height="25" as="geometry" />
        </mxCell>
        <mxCell id="9JChWid0Spb6rN9y7xyM-20" value="close" style="whiteSpace=wrap;html=1;rounded=0;fillColor=#000000;strokeColor=#000000;fontColor=#FFFFFF;" vertex="1" parent="1">
          <mxGeometry x="589.75" y="401" width="120" height="20" as="geometry" />
        </mxCell>
        <mxCell id="9JChWid0Spb6rN9y7xyM-21" value="" style="edgeStyle=orthogonalEdgeStyle;rounded=0;orthogonalLoop=1;jettySize=auto;html=1;fontSize=30;fontColor=#000000;startArrow=none;startFill=0;endArrow=openThin;endFill=0;" edge="1" parent="1" source="9JChWid0Spb6rN9y7xyM-8" target="9JChWid0Spb6rN9y7xyM-20">
          <mxGeometry relative="1" as="geometry" />
        </mxCell>
        <mxCell id="9JChWid0Spb6rN9y7xyM-22" value="True" style="edgeLabel;html=1;align=center;verticalAlign=middle;resizable=0;points=[];" vertex="1" connectable="0" parent="9JChWid0Spb6rN9y7xyM-21">
          <mxGeometry x="-0.2455" relative="1" as="geometry">
            <mxPoint as="offset" />
          </mxGeometry>
        </mxCell>
        <mxCell id="9JChWid0Spb6rN9y7xyM-23" value="if(Play)" style="rhombus;whiteSpace=wrap;html=1;rounded=0;fillColor=#d5e8d4;strokeColor=#82b366;" vertex="1" parent="1">
          <mxGeometry x="1274.75" y="936" width="230" height="50" as="geometry" />
        </mxCell>
        <mxCell id="9JChWid0Spb6rN9y7xyM-24" style="edgeStyle=orthogonalEdgeStyle;rounded=0;orthogonalLoop=1;jettySize=auto;html=1;entryX=0.023;entryY=0.516;entryDx=0;entryDy=0;entryPerimeter=0;fontSize=12;startArrow=none;startFill=0;endArrow=openThin;endFill=0;" edge="1" parent="1" source="9JChWid0Spb6rN9y7xyM-10" target="9JChWid0Spb6rN9y7xyM-23">
          <mxGeometry relative="1" as="geometry" />
        </mxCell>
        <mxCell id="9JChWid0Spb6rN9y7xyM-25" value="&lt;span&gt;Allow user to solve Sudoku problem.&lt;/span&gt;" style="whiteSpace=wrap;html=1;rounded=0;fillColor=#f8cecc;strokeColor=#b85450;" vertex="1" parent="1">
          <mxGeometry x="1764.75" y="951" width="230" height="20" as="geometry" />
        </mxCell>
        <mxCell id="9JChWid0Spb6rN9y7xyM-26" value="" style="edgeStyle=orthogonalEdgeStyle;rounded=0;orthogonalLoop=1;jettySize=auto;html=1;fontSize=12;startArrow=none;startFill=0;endArrow=openThin;endFill=0;" edge="1" parent="1" source="9JChWid0Spb6rN9y7xyM-23" target="9JChWid0Spb6rN9y7xyM-25">
          <mxGeometry relative="1" as="geometry" />
        </mxCell>
        <mxCell id="9JChWid0Spb6rN9y7xyM-27" value="True" style="edgeLabel;html=1;align=center;verticalAlign=middle;resizable=0;points=[];fontSize=12;" vertex="1" connectable="0" parent="9JChWid0Spb6rN9y7xyM-26">
          <mxGeometry x="-0.3389" relative="1" as="geometry">
            <mxPoint as="offset" />
          </mxGeometry>
        </mxCell>
        <mxCell id="9JChWid0Spb6rN9y7xyM-28" value="" style="edgeStyle=orthogonalEdgeStyle;rounded=0;orthogonalLoop=1;jettySize=auto;html=1;fontSize=12;startArrow=none;startFill=0;endArrow=openThin;endFill=0;" edge="1" parent="1" source="9JChWid0Spb6rN9y7xyM-19" target="9JChWid0Spb6rN9y7xyM-30">
          <mxGeometry relative="1" as="geometry" />
        </mxCell>
        <mxCell id="9JChWid0Spb6rN9y7xyM-29" value="" style="edgeStyle=orthogonalEdgeStyle;rounded=0;orthogonalLoop=1;jettySize=auto;html=1;fontSize=12;startArrow=none;startFill=0;endArrow=openThin;endFill=0;" edge="1" parent="1" source="9JChWid0Spb6rN9y7xyM-30" target="9JChWid0Spb6rN9y7xyM-38">
          <mxGeometry relative="1" as="geometry" />
        </mxCell>
        <mxCell id="9JChWid0Spb6rN9y7xyM-30" value="Setting Sudoku Grid, --&amp;gt;(GenerateNew)" style="whiteSpace=wrap;html=1;rounded=0;fillColor=#d5e8d4;strokeColor=#82b366;" vertex="1" parent="1">
          <mxGeometry x="1274.75" y="576" width="230" height="30" as="geometry" />
        </mxCell>
        <mxCell id="9JChWid0Spb6rN9y7xyM-31" value="" style="edgeStyle=orthogonalEdgeStyle;rounded=0;orthogonalLoop=1;jettySize=auto;html=1;fontSize=12;startArrow=none;startFill=0;endArrow=openThin;endFill=0;exitX=0;exitY=0.5;exitDx=0;exitDy=0;" edge="1" parent="1" source="9JChWid0Spb6rN9y7xyM-38" target="9JChWid0Spb6rN9y7xyM-9">
          <mxGeometry relative="1" as="geometry" />
        </mxCell>
        <mxCell id="9JChWid0Spb6rN9y7xyM-32" value="If user want to edit Sudoku Problem." style="edgeStyle=orthogonalEdgeStyle;rounded=0;orthogonalLoop=1;jettySize=auto;html=1;fontSize=12;startArrow=none;startFill=0;endArrow=openThin;endFill=0;" edge="1" parent="1" source="9JChWid0Spb6rN9y7xyM-38" target="9JChWid0Spb6rN9y7xyM-11">
          <mxGeometry relative="1" as="geometry" />
        </mxCell>
        <mxCell id="9JChWid0Spb6rN9y7xyM-33" value="" style="edgeStyle=orthogonalEdgeStyle;rounded=0;orthogonalLoop=1;jettySize=auto;html=1;fontSize=12;startArrow=none;startFill=0;endArrow=openThin;endFill=0;" edge="1" parent="1" source="9JChWid0Spb6rN9y7xyM-38" target="9JChWid0Spb6rN9y7xyM-23">
          <mxGeometry relative="1" as="geometry" />
        </mxCell>
        <mxCell id="9JChWid0Spb6rN9y7xyM-34" value="If user want to solve Sudoku." style="edgeLabel;html=1;align=center;verticalAlign=middle;resizable=0;points=[];fontSize=12;fontColor=#000000;" vertex="1" connectable="0" parent="9JChWid0Spb6rN9y7xyM-33">
          <mxGeometry x="-0.2791" y="1" relative="1" as="geometry">
            <mxPoint as="offset" />
          </mxGeometry>
        </mxCell>
        <mxCell id="9JChWid0Spb6rN9y7xyM-35" value="" style="edgeStyle=orthogonalEdgeStyle;rounded=0;orthogonalLoop=1;jettySize=auto;html=1;fontSize=12;startArrow=none;startFill=0;endArrow=openThin;endFill=0;" edge="1" parent="1" source="9JChWid0Spb6rN9y7xyM-38" target="9JChWid0Spb6rN9y7xyM-43">
          <mxGeometry relative="1" as="geometry" />
        </mxCell>
        <mxCell id="9JChWid0Spb6rN9y7xyM-36" value="If user want to see real solution." style="edgeLabel;html=1;align=center;verticalAlign=middle;resizable=0;points=[];fontSize=12;fontColor=#000000;" vertex="1" connectable="0" parent="9JChWid0Spb6rN9y7xyM-35">
          <mxGeometry x="-0.1323" y="1" relative="1" as="geometry">
            <mxPoint as="offset" />
          </mxGeometry>
        </mxCell>
        <mxCell id="9JChWid0Spb6rN9y7xyM-37" value="" style="edgeStyle=orthogonalEdgeStyle;rounded=0;orthogonalLoop=1;jettySize=auto;html=1;fontSize=30;fontColor=#000000;startArrow=none;startFill=0;endArrow=openThin;endFill=0;" edge="1" parent="1" source="9JChWid0Spb6rN9y7xyM-38" target="9JChWid0Spb6rN9y7xyM-8">
          <mxGeometry relative="1" as="geometry">
            <Array as="points">
              <mxPoint x="1289.75" y="696" />
              <mxPoint x="1289.75" y="651" />
              <mxPoint x="1079.75" y="651" />
            </Array>
          </mxGeometry>
        </mxCell>
        <mxCell id="9JChWid0Spb6rN9y7xyM-38" value="switchstatement(PlayMode_e)" style="whiteSpace=wrap;html=1;rounded=0;fillColor=#d5e8d4;strokeColor=#82B366;" vertex="1" parent="1">
          <mxGeometry x="1294.75" y="681" width="190" height="30" as="geometry" />
        </mxCell>
        <mxCell id="9JChWid0Spb6rN9y7xyM-39" style="edgeStyle=orthogonalEdgeStyle;rounded=0;orthogonalLoop=1;jettySize=auto;html=1;entryX=0.5;entryY=1;entryDx=0;entryDy=0;fontSize=12;startArrow=none;startFill=0;endArrow=openThin;endFill=0;" edge="1" parent="1" source="9JChWid0Spb6rN9y7xyM-25" target="9JChWid0Spb6rN9y7xyM-43">
          <mxGeometry relative="1" as="geometry" />
        </mxCell>
        <mxCell id="9JChWid0Spb6rN9y7xyM-40" value="If user want to see real solution." style="edgeLabel;html=1;align=center;verticalAlign=middle;resizable=0;points=[];fontSize=12;" vertex="1" connectable="0" parent="9JChWid0Spb6rN9y7xyM-39">
          <mxGeometry x="-0.0531" y="1" relative="1" as="geometry">
            <mxPoint as="offset" />
          </mxGeometry>
        </mxCell>
        <mxCell id="9JChWid0Spb6rN9y7xyM-41" value="" style="edgeStyle=orthogonalEdgeStyle;rounded=0;orthogonalLoop=1;jettySize=auto;html=1;fontSize=12;fontColor=#000000;startArrow=none;startFill=0;endArrow=openThin;endFill=0;" edge="1" parent="1" source="9JChWid0Spb6rN9y7xyM-25">
          <mxGeometry x="-0.0027" relative="1" as="geometry">
            <mxPoint x="2239.75" y="581" as="targetPoint" />
            <Array as="points">
              <mxPoint x="2699.75" y="961" />
              <mxPoint x="2699.75" y="491" />
              <mxPoint x="2239.75" y="491" />
            </Array>
            <mxPoint as="offset" />
          </mxGeometry>
        </mxCell>
        <mxCell id="9JChWid0Spb6rN9y7xyM-42" value="True" style="edgeStyle=orthogonalEdgeStyle;rounded=0;orthogonalLoop=1;jettySize=auto;html=1;fontSize=12;startArrow=none;startFill=0;endArrow=openThin;endFill=0;" edge="1" parent="1" source="9JChWid0Spb6rN9y7xyM-43" target="9JChWid0Spb6rN9y7xyM-45">
          <mxGeometry relative="1" as="geometry" />
        </mxCell>
        <mxCell id="9JChWid0Spb6rN9y7xyM-43" value="if(ShowSolution)" style="rhombus;whiteSpace=wrap;html=1;rounded=0;" vertex="1" parent="1">
          <mxGeometry x="1719.75" y="674.75" width="320" height="42.5" as="geometry" />
        </mxCell>
        <mxCell id="9JChWid0Spb6rN9y7xyM-44" value="" style="edgeStyle=orthogonalEdgeStyle;rounded=0;orthogonalLoop=1;jettySize=auto;html=1;fontSize=12;fontColor=#FFFFFF;startArrow=none;startFill=0;endArrow=openThin;endFill=0;" edge="1" parent="1" source="9JChWid0Spb6rN9y7xyM-45" target="9JChWid0Spb6rN9y7xyM-49">
          <mxGeometry relative="1" as="geometry" />
        </mxCell>
        <mxCell id="9JChWid0Spb6rN9y7xyM-45" value="Computer solves sudoku automatically.&lt;br&gt;&lt;strike&gt;Then it calculate all possible solution.&lt;/strike&gt;" style="whiteSpace=wrap;html=1;rounded=0;fillColor=#f8cecc;strokeColor=#b85450;" vertex="1" parent="1">
          <mxGeometry x="2097.75" y="667.25" width="230" height="57.5" as="geometry" />
        </mxCell>
        <mxCell id="9JChWid0Spb6rN9y7xyM-46" value="" style="edgeStyle=orthogonalEdgeStyle;rounded=0;orthogonalLoop=1;jettySize=auto;html=1;fontSize=12;fontColor=#FFFFFF;startArrow=none;startFill=0;endArrow=openThin;endFill=0;" edge="1" parent="1" source="9JChWid0Spb6rN9y7xyM-49" target="9JChWid0Spb6rN9y7xyM-6">
          <mxGeometry relative="1" as="geometry" />
        </mxCell>
        <mxCell id="9JChWid0Spb6rN9y7xyM-47" value="If user want to see other possible solution" style="edgeStyle=orthogonalEdgeStyle;rounded=0;orthogonalLoop=1;jettySize=auto;html=1;fontSize=12;fontColor=#000000;startArrow=none;startFill=0;endArrow=openThin;endFill=0;" edge="1" parent="1" source="9JChWid0Spb6rN9y7xyM-49" target="9JChWid0Spb6rN9y7xyM-52">
          <mxGeometry relative="1" as="geometry" />
        </mxCell>
        <mxCell id="9JChWid0Spb6rN9y7xyM-48" style="edgeStyle=orthogonalEdgeStyle;rounded=0;orthogonalLoop=1;jettySize=auto;html=1;fontSize=30;fontColor=#000000;startArrow=none;startFill=0;endArrow=openThin;endFill=0;entryX=1;entryY=0.5;entryDx=0;entryDy=0;" edge="1" parent="1" source="9JChWid0Spb6rN9y7xyM-49" target="9JChWid0Spb6rN9y7xyM-8">
          <mxGeometry relative="1" as="geometry">
            <mxPoint x="1889.75" y="351" as="targetPoint" />
            <Array as="points">
              <mxPoint x="2212.75" y="411" />
            </Array>
          </mxGeometry>
        </mxCell>
        <mxCell id="9JChWid0Spb6rN9y7xyM-49" value="switchstatement(SolutionMode_e)" style="whiteSpace=wrap;html=1;rounded=0;fillColor=#f8cecc;strokeColor=#b85450;" vertex="1" parent="1">
          <mxGeometry x="2118.06" y="581" width="189.38" height="20" as="geometry" />
        </mxCell>
        <mxCell id="9JChWid0Spb6rN9y7xyM-50" value="&lt;font color=&quot;#000000&quot;&gt;&lt;span&gt;True&lt;/span&gt;&lt;/font&gt;" style="edgeStyle=orthogonalEdgeStyle;rounded=0;orthogonalLoop=1;jettySize=auto;html=1;entryX=1;entryY=0.5;entryDx=0;entryDy=0;fontSize=12;fontColor=#FFFFFF;startArrow=none;startFill=0;endArrow=openThin;endFill=0;" edge="1" parent="1" source="9JChWid0Spb6rN9y7xyM-6" target="9JChWid0Spb6rN9y7xyM-30">
          <mxGeometry relative="1" as="geometry" />
        </mxCell>
        <mxCell id="9JChWid0Spb6rN9y7xyM-51" value="True" style="edgeStyle=orthogonalEdgeStyle;rounded=0;orthogonalLoop=1;jettySize=auto;html=1;fontSize=12;fontColor=#000000;startArrow=none;startFill=0;endArrow=openThin;endFill=0;entryX=1;entryY=0.5;entryDx=0;entryDy=0;" edge="1" parent="1" source="9JChWid0Spb6rN9y7xyM-52" target="9JChWid0Spb6rN9y7xyM-45">
          <mxGeometry relative="1" as="geometry">
            <mxPoint x="2481.62" y="731" as="targetPoint" />
          </mxGeometry>
        </mxCell>
        <mxCell id="9JChWid0Spb6rN9y7xyM-52" value="if(showSolution)" style="rhombus;whiteSpace=wrap;html=1;rounded=0;fillColor=#f8cecc;strokeColor=#b85450;" vertex="1" parent="1">
          <mxGeometry x="2409.75" y="681" width="243.74" height="30" as="geometry" />
        </mxCell>
      </root>
    </mxGraphModel>
  </diagram>
</mxfile>
